<svg width="104" height="104" viewBox="0 0 104 104" fill="none" xmlns="http://www.w3.org/2000/svg">
<circle cx="52" cy="52" r="52" fill="#D9D9D9"/>
<path d="M51.9999 52C60.3762 52 67.1666 45.2096 67.1666 36.8333C67.1666 28.457 60.3762 21.6666 51.9999 21.6666C43.6236 21.6666 36.8332 28.457 36.8332 36.8333C36.8332 45.2096 43.6236 52 51.9999 52Z" stroke="white" stroke-width="4.04445" stroke-linecap="round" stroke-linejoin="round"/>
<path d="M25.9437 82.3333C25.9437 70.5943 37.6221 61.1 52.0001 61.1C55.2001 61.1 58.2664 61.5703 61.1 62.4309" stroke="white" stroke-width="4.04445" stroke-linecap="round" stroke-linejoin="round"/>
<path d="M61.9343 72.2867V77.7346C61.9343 83.1825 64.1183 85.3665 69.5662 85.3665H76.1061C81.5539 85.3665 83.7379 83.1825 83.7379 77.7346V72.2867" stroke="white" stroke-width="4.04445" stroke-linecap="round" stroke-linejoin="round"/>
<path d="M72.8429 73.2333C75.0633 73.2333 76.7013 71.4254 76.4829 69.205L75.6821 61.1H70.0158L69.2029 69.205C68.9845 71.4254 70.6225 73.2333 72.8429 73.2333Z" stroke="white" stroke-width="4.04445" stroke-linecap="round" stroke-linejoin="round"/>
<path d="M80.4984 73.2333C82.9494 73.2333 84.7451 71.2434 84.5024 68.8046L84.1627 65.468C83.7259 62.3133 82.5126 61.1 79.3336 61.1H75.633L76.4823 69.6054C76.6886 71.6074 78.4964 73.2333 80.4984 73.2333Z" stroke="white" stroke-width="4.04445" stroke-linecap="round" stroke-linejoin="round"/>
<path d="M65.1259 73.2333C67.1279 73.2333 68.9358 71.6074 69.1299 69.6054L69.3968 66.924L69.9792 61.1H66.2786C63.0996 61.1 61.8863 62.3133 61.4495 65.468L61.1219 68.8046C60.8792 71.2434 62.675 73.2333 65.1259 73.2333Z" stroke="white" stroke-width="4.04445" stroke-linecap="round" stroke-linejoin="round"/>
</svg>
