<svg width="108" height="108" viewBox="0 0 108 108" fill="none" xmlns="http://www.w3.org/2000/svg">
<path d="M0 53.9655C0 83.7699 24.1612 107.931 53.9655 107.931C83.7699 107.931 107.931 83.7699 107.931 53.9655C107.931 24.1612 83.7699 0 53.9655 0C24.1612 0 0 24.1612 0 53.9655Z" fill="#F0F8FF"/>
<path d="M88.7894 46.0874C90.0388 51.2148 90.1361 56.5555 89.0745 61.725C88.6162 63.8637 87.3754 65.754 85.5955 67.0253C83.8155 68.2965 81.6249 68.8569 79.4532 68.5965L68.9707 67.4444C70.6471 63.2937 71.2694 58.7925 70.7821 54.3427L88.7894 46.0874Z" fill="#2863AD"/>
<path d="M84.834 72.6944C82.0674 77.4252 78.2568 81.4615 73.6929 84.4955C69.129 87.5296 63.9325 89.4811 58.4996 90.2012C53.0668 90.9213 47.5413 90.3911 42.3446 88.6509C37.1478 86.9106 32.4172 84.0065 28.5137 80.1599C31.763 82.2946 35.4296 83.713 39.2696 84.3207C43.1095 84.9284 47.0349 84.7116 50.7846 83.6845C54.5343 82.6575 58.0223 80.8438 61.0167 78.3642C64.0111 75.8845 66.4431 72.7957 68.1511 69.3032L84.834 72.6944Z" fill="#2A2756"/>
<path d="M46.6221 71.6373C43.015 69.5541 40.1184 66.4335 38.309 62.6816C36.4996 58.9296 35.8612 54.72 36.4769 50.6003C37.0927 46.4807 38.9339 42.6416 41.7612 39.5827C44.5886 36.5237 48.271 34.3865 52.3296 33.4489C47.9618 31.8372 43.2351 31.4572 38.6659 32.3504C34.0968 33.2436 29.8611 35.3756 26.4218 38.5135C22.9825 41.6513 20.4719 45.6742 19.1645 50.1425C17.8571 54.6108 17.8031 59.3525 19.0085 63.8494C20.2139 68.3462 22.6323 72.4252 25.9993 75.6405C29.3663 78.8558 33.5523 81.0837 38.1 82.0807C42.6476 83.0776 47.3818 82.8052 51.7851 81.2934C56.1884 79.7815 60.0914 77.0883 63.0674 73.5081C60.3452 74.3452 57.4793 74.6111 54.6495 74.2891C51.8197 73.9672 49.0868 73.0644 46.6221 71.6373Z" fill="#000022"/>
<path d="M79.1375 20.6501C77.8232 19.4896 76.4345 18.4163 74.9802 17.437L53.7479 54.1821C52.8947 55.659 52.4461 57.3347 52.4473 59.0403V62.3128L75.9661 49.2468C86.5733 43.3671 88.2778 28.6678 79.1375 20.6501Z" fill="#E32636"/>
</svg>
