<svg width="19" height="18" viewBox="0 0 19 18" fill="none" xmlns="http://www.w3.org/2000/svg">
<path d="M11 6.975V9.15H12.95C13.1 9.15 13.175 9.3 13.175 9.45L12.875 10.875C12.875 10.95 12.725 11.025 12.65 11.025H11V16.5H8.75V11.1H7.475C7.325 11.1 7.25 11.025 7.25 10.875V9.45C7.25 9.3 7.325 9.225 7.475 9.225H8.75V6.75C8.75 5.475 9.725 4.5 11 4.5H13.025C13.175 4.5 13.25 4.575 13.25 4.725V6.525C13.25 6.675 13.175 6.75 13.025 6.75H11.225C11.075 6.75 11 6.825 11 6.975Z" stroke="#606060" stroke-width="1.125" stroke-miterlimit="10" stroke-linecap="round"/>
<path d="M11.75 16.5H7.25C3.5 16.5 2 15 2 11.25V6.75C2 3 3.5 1.5 7.25 1.5H11.75C15.5 1.5 17 3 17 6.75V11.25C17 15 15.5 16.5 11.75 16.5Z" stroke="#606060" stroke-width="1.125" stroke-linecap="round" stroke-linejoin="round"/>
</svg>
