<svg width="56" height="56" viewBox="0 0 56 56" fill="none" xmlns="http://www.w3.org/2000/svg">
<g filter="url(#filter0_d_216_1445)">
<path d="M28 52C41.2 52 52 41.2 52 28C52 14.8 41.2 4 28 4C14.8 4 4 14.8 4 28C4 41.2 14.8 52 28 52Z" fill="#606060"/>
<path d="M23.3333 27.9998H32.6666" stroke="white" stroke-width="1.75" stroke-linecap="round" stroke-linejoin="round"/>
<path d="M27.9999 32.6667V23.3334" stroke="white" stroke-width="1.75" stroke-linecap="round" stroke-linejoin="round"/>
<path d="M24.5 39.6665H31.5C37.3333 39.6665 39.6667 37.3331 39.6667 31.4998V24.4998C39.6667 18.6665 37.3333 16.3331 31.5 16.3331H24.5C18.6667 16.3331 16.3334 18.6665 16.3334 24.4998V31.4998C16.3334 37.3331 18.6667 39.6665 24.5 39.6665Z" stroke="white" stroke-width="1.75" stroke-linecap="round" stroke-linejoin="round"/>
</g>
<defs>
<filter id="filter0_d_216_1445" x="0" y="0" width="56" height="56" filterUnits="userSpaceOnUse" color-interpolation-filters="sRGB">
<feFlood flood-opacity="0" result="BackgroundImageFix"/>
<feColorMatrix in="SourceAlpha" type="matrix" values="0 0 0 0 0 0 0 0 0 0 0 0 0 0 0 0 0 0 127 0" result="hardAlpha"/>
<feOffset/>
<feGaussianBlur stdDeviation="2"/>
<feComposite in2="hardAlpha" operator="out"/>
<feColorMatrix type="matrix" values="0 0 0 0 0 0 0 0 0 0 0 0 0 0 0 0 0 0 0.25 0"/>
<feBlend mode="normal" in2="BackgroundImageFix" result="effect1_dropShadow_216_1445"/>
<feBlend mode="normal" in="SourceGraphic" in2="effect1_dropShadow_216_1445" result="shape"/>
</filter>
</defs>
</svg>
