<svg width="48" height="48" viewBox="0 0 48 48" fill="none" xmlns="http://www.w3.org/2000/svg">
<path d="M23.9994 48C37.1994 48 47.9994 37.2 47.9994 24C47.9994 10.8 37.1994 0 23.9994 0C10.7994 0 -0.000610352 10.8 -0.000610352 24C-0.000610352 37.2 10.7994 48 23.9994 48Z" fill="#606060"/>
<path d="M22.8001 12H20.4001C14.4001 12 12.0001 14.4 12.0001 20.4V27.6C12.0001 33.6 14.4001 36 20.4001 36H27.6001C33.6001 36 36.0001 33.6 36.0001 27.6V25.2" fill="#606060"/>
<path d="M22.8001 12H20.4001C14.4001 12 12.0001 14.4 12.0001 20.4V27.6C12.0001 33.6 14.4001 36 20.4001 36H27.6001C33.6001 36 36.0001 33.6 36.0001 27.6V25.2" stroke="white" stroke-width="1.8" stroke-linecap="round" stroke-linejoin="round"/>
<path d="M28.8481 13.2242L19.3921 22.6802C19.0321 23.0402 18.6721 23.7482 18.6001 24.2642L18.0841 27.8762C17.8921 29.1842 18.8161 30.0962 20.1241 29.9162L23.7361 29.4002C24.2401 29.3282 24.9481 28.9682 25.3201 28.6082L34.7761 19.1522C36.4081 17.5202 37.1761 15.6242 34.7761 13.2242C32.3761 10.8242 30.4801 11.5922 28.8481 13.2242Z" fill="#606060" stroke="white" stroke-width="1.8" stroke-miterlimit="10" stroke-linecap="round" stroke-linejoin="round"/>
<path d="M27.4921 14.5801C28.2961 17.4481 30.5401 19.6921 33.4201 20.5081L27.4921 14.5801Z" fill="#606060"/>
<path d="M27.4921 14.5801C28.2961 17.4481 30.5401 19.6921 33.4201 20.5081" stroke="white" stroke-width="1.8" stroke-miterlimit="10" stroke-linecap="round" stroke-linejoin="round"/>
</svg>
