<svg width="12" height="12" viewBox="0 0 12 12" fill="none" xmlns="http://www.w3.org/2000/svg">
<path fill-rule="evenodd" clip-rule="evenodd" d="M5.49652 4.53222C5.26964 4.53222 5.06398 4.72919 5.06398 4.99748C5.06398 5.18019 5.10331 5.26376 5.13813 5.30818C5.1754 5.35573 5.23807 5.39796 5.36146 5.44178L6.82706 5.95092C6.99032 6.00878 7.16735 6.09551 7.29812 6.26232C7.43141 6.43236 7.4884 6.64866 7.4884 6.90939C7.4884 7.4553 7.0616 7.91987 6.51063 7.91987H5.59829C4.98831 7.91987 4.51875 7.40715 4.51875 6.80035C4.51875 6.64979 4.64081 6.52774 4.79136 6.52774C4.94192 6.52774 5.06398 6.64979 5.06398 6.80035C5.06398 7.13133 5.31411 7.37465 5.59829 7.37465H6.51063C6.73751 7.37465 6.94318 7.17768 6.94318 6.90939C6.94318 6.72668 6.90384 6.64311 6.86902 6.59869C6.83175 6.55115 6.76908 6.50891 6.64569 6.4651L5.18009 5.95595C5.01683 5.89809 4.8398 5.81136 4.70903 5.64455C4.57574 5.47451 4.51875 5.25821 4.51875 4.99748C4.51875 4.45157 4.94555 3.987 5.49652 3.987H6.40886C7.01884 3.987 7.4884 4.49972 7.4884 5.10652C7.4884 5.25708 7.36635 5.37913 7.21579 5.37913C7.06523 5.37913 6.94318 5.25708 6.94318 5.10652C6.94318 4.77554 6.69304 4.53222 6.40886 4.53222H5.49652Z" fill="#606060"/>
<path fill-rule="evenodd" clip-rule="evenodd" d="M6.00102 3.5C6.15158 3.5 6.27363 3.62205 6.27363 3.77261V8.13439C6.27363 8.28495 6.15158 8.407 6.00102 8.407C5.85046 8.407 5.72841 8.28495 5.72841 8.13439V3.77261C5.72841 3.62205 5.85046 3.5 6.00102 3.5Z" fill="#606060"/>
<rect x="1" y="2" width="10" height="8" rx="1" stroke="#606060" stroke-width="0.75"/>
<circle cx="2.5" cy="6" r="0.5" fill="#606060"/>
<circle cx="9.5" cy="6" r="0.5" fill="#606060"/>
</svg>
