<svg width="12" height="12" viewBox="0 0 12 12" fill="none" xmlns="http://www.w3.org/2000/svg">
<path d="M4 1V2.5" stroke="#606060" stroke-width="0.75" stroke-miterlimit="10" stroke-linecap="round" stroke-linejoin="round"/>
<path d="M4 1V2.5" stroke="#606060" stroke-width="0.75" stroke-miterlimit="10" stroke-linecap="round" stroke-linejoin="round"/>
<path d="M8 1V2.5" stroke="#606060" stroke-width="0.75" stroke-miterlimit="10" stroke-linecap="round" stroke-linejoin="round"/>
<path d="M8 1V2.5" stroke="#606060" stroke-width="0.75" stroke-miterlimit="10" stroke-linecap="round" stroke-linejoin="round"/>
<path d="M3.5 6.5H7.5" stroke="#606060" stroke-width="0.75" stroke-miterlimit="10" stroke-linecap="round" stroke-linejoin="round"/>
<path d="M3.5 6.5H7.5" stroke="#606060" stroke-width="0.75" stroke-miterlimit="10" stroke-linecap="round" stroke-linejoin="round"/>
<path d="M3.5 8.5H6" stroke="#606060" stroke-width="0.75" stroke-miterlimit="10" stroke-linecap="round" stroke-linejoin="round"/>
<path d="M3.5 8.5H6" stroke="#606060" stroke-width="0.75" stroke-miterlimit="10" stroke-linecap="round" stroke-linejoin="round"/>
<path d="M8 1.75C9.665 1.84 10.5 2.475 10.5 4.825V7.915C10.5 9.975 10 11.005 7.5 11.005H4.5C2 11.005 1.5 9.975 1.5 7.915V4.825C1.5 2.475 2.335 1.845 4 1.75H8Z" stroke="#606060" stroke-width="0.75" stroke-miterlimit="10" stroke-linecap="round" stroke-linejoin="round"/>
<path d="M8 1.75C9.665 1.84 10.5 2.475 10.5 4.825V7.915C10.5 9.975 10 11.005 7.5 11.005H4.5C2 11.005 1.5 9.975 1.5 7.915V4.825C1.5 2.475 2.335 1.845 4 1.75H8Z" stroke="#606060" stroke-width="0.75" stroke-miterlimit="10" stroke-linecap="round" stroke-linejoin="round"/>
</svg>
