<svg width="33" height="33" viewBox="0 0 33 33" fill="none" xmlns="http://www.w3.org/2000/svg">
<circle cx="16.0704" cy="16.1127" r="16" fill="white"/>
<path d="M16.0704 16.1127C18.6477 16.1127 20.7371 14.0233 20.7371 11.446C20.7371 8.86868 18.6477 6.77934 16.0704 6.77934C13.4931 6.77934 11.4037 8.86868 11.4037 11.446C11.4037 14.0233 13.4931 16.1127 16.0704 16.1127Z" stroke="#606060" stroke-width="1.4" stroke-linecap="round" stroke-linejoin="round"/>
<path d="M8.05313 25.446C8.05313 21.834 11.6465 18.9127 16.0705 18.9127C17.0551 18.9127 17.9986 19.0574 18.8704 19.3222" stroke="#606060" stroke-width="1.4" stroke-linecap="round" stroke-linejoin="round"/>
<path d="M19.1271 22.3548V24.031C19.1271 25.7073 19.7991 26.3793 21.4754 26.3793H23.4877C25.1639 26.3793 25.8359 25.7073 25.8359 24.031V22.3548" stroke="#606060" stroke-width="1.4" stroke-linecap="round" stroke-linejoin="round"/>
<path d="M22.4836 22.646C23.1668 22.646 23.6708 22.0897 23.6036 21.4065L23.3572 18.9127H21.6138L21.3636 21.4065C21.2964 22.0897 21.8004 22.646 22.4836 22.646Z" stroke="#606060" stroke-width="1.4" stroke-linecap="round" stroke-linejoin="round"/>
<path d="M24.8392 22.646C25.5933 22.646 26.1458 22.0337 26.0712 21.2833L25.9666 20.2567C25.8322 19.286 25.4589 18.9127 24.4808 18.9127H23.3421L23.6034 21.5297C23.6669 22.1457 24.2232 22.646 24.8392 22.646Z" stroke="#606060" stroke-width="1.4" stroke-linecap="round" stroke-linejoin="round"/>
<path d="M20.1092 22.646C20.7252 22.646 21.2814 22.1457 21.3412 21.5297L21.4233 20.7047L21.6025 18.9127H20.4638C19.4857 18.9127 19.1124 19.286 18.978 20.2567L18.8772 21.2833C18.8025 22.0337 19.355 22.646 20.1092 22.646Z" stroke="#606060" stroke-width="1.4" stroke-linecap="round" stroke-linejoin="round"/>
</svg>
