<svg width="101" height="48" viewBox="0 0 101 48" fill="none" xmlns="http://www.w3.org/2000/svg">
<path d="M38.8582 20.3468C39.4097 22.6105 39.4527 24.9683 38.984 27.2506C38.7817 28.1938 38.2347 29.0275 37.45 29.5886C36.6654 30.1497 35.6995 30.3978 34.7416 30.2843L30.1137 29.7756C30.8565 27.9438 31.134 25.9566 30.9213 23.9914L38.8582 20.3468Z" fill="#2863AD"/>
<path d="M37.125 32.0934C35.9036 34.182 34.2213 35.964 32.2064 37.3034C30.1915 38.6429 27.8973 39.5045 25.4988 39.8224C23.1003 40.1403 20.6609 39.9062 18.3666 39.1379C16.0723 38.3697 13.9838 37.0875 12.2605 35.3893C13.695 36.3318 15.3137 36.958 17.009 37.2263C18.7043 37.4946 20.4373 37.3988 22.0928 36.9454C23.7482 36.492 25.2881 35.6913 26.6101 34.5965C27.932 33.5018 29.0057 32.1382 29.7598 30.5963L37.125 32.0934Z" fill="#2A2756"/>
<path d="M20.2551 31.6267C18.6626 30.7068 17.3839 29.329 16.5852 27.6724C15.7866 26.0158 15.505 24.1571 15.7771 22.3383C16.0492 20.5195 16.8625 18.8247 18.111 17.4744C19.3595 16.124 20.9855 15.1807 22.7775 14.7672C20.8493 14.0553 18.7625 13.8871 16.7451 14.2811C14.7278 14.6751 12.8576 15.616 11.339 17.0011C9.82029 18.3862 8.71161 20.1621 8.1341 22.1348C7.55658 24.1074 7.53245 26.2008 8.06435 28.1863C8.59625 30.1717 9.66371 31.9727 11.15 33.3924C12.6364 34.8121 14.4844 35.796 16.4921 36.2363C18.4998 36.6767 20.5899 36.5567 22.534 35.8894C24.4782 35.2221 26.2014 34.0332 27.5155 32.4527C26.3136 32.8221 25.0484 32.9394 23.7991 32.7973C22.5498 32.6551 21.3433 32.2567 20.2551 31.6267Z" fill="#2A2756"/>
<path d="M34.6107 9.11674C34.0253 8.60394 33.4069 8.13009 32.7595 7.69823L23.3937 23.9206C23.017 24.5726 22.8189 25.3125 22.8195 26.0654V27.5102L33.2 21.7417C37.8882 19.1459 38.6459 12.6565 34.6107 9.11674Z" fill="#E32636"/>
<path d="M51.7849 28.5537H54.7216C54.6266 29.2127 54.3081 29.8189 53.8196 30.2712C53.2747 30.7359 52.5738 30.9767 51.8583 30.945C51.3012 30.9544 50.7514 30.8169 50.2641 30.5465C49.7933 30.2764 49.4108 29.8757 49.1629 29.3928C48.8914 28.8571 48.7563 28.2627 48.7696 27.6623C48.7551 27.0626 48.8903 26.4687 49.1629 25.9344C49.4125 25.4571 49.7926 25.0607 50.2589 24.7912C50.7481 24.5183 51.3009 24.3799 51.8609 24.39C52.3631 24.3794 52.8596 24.4976 53.3031 24.7335C53.7205 24.9652 54.0579 25.3181 54.2706 25.7456L54.2994 25.8006H56.3498L56.2974 25.6617C55.9685 24.7835 55.3618 24.0368 54.5695 23.5352C53.7963 23.0703 52.9155 22.8146 52.0136 22.793C51.1117 22.7713 50.2197 22.9847 49.4251 23.412C48.6888 23.8207 48.0771 24.4215 47.6552 25.1504C47.227 25.9178 47.0022 26.7821 47.0022 27.6609C47.0022 28.5398 47.227 29.4041 47.6552 30.1715C48.0767 30.8982 48.6863 31.4979 49.4198 31.9073C50.1696 32.3257 51.0155 32.5417 51.8741 32.534C52.6472 32.5409 53.4102 32.3578 54.096 32.0007C54.7818 31.6436 55.3694 31.1235 55.8071 30.4862C56.2274 29.8705 56.4969 29.1645 56.5937 28.4253V27.1143H53.2191C53.0301 27.1132 52.8427 27.1498 52.6678 27.2218C52.493 27.2938 52.3342 27.3999 52.2008 27.5339C52.0673 27.6678 51.9618 27.8269 51.8904 28.002C51.819 28.1771 51.7832 28.3647 51.7849 28.5537Z" fill="#2A2756"/>
<path d="M63.7202 25.1923C63.1322 24.8739 62.4721 24.7123 61.8035 24.723C61.1131 24.7106 60.4312 24.8768 59.8239 25.2054C59.2524 25.5256 58.7861 26.0047 58.4814 26.5846C58.1539 27.2195 57.9899 27.926 58.0042 28.6403C57.9899 29.3569 58.1587 30.0653 58.4945 30.6986C58.8069 31.2786 59.2768 31.7585 59.8501 32.083C60.4472 32.4143 61.1207 32.5834 61.8035 32.5733C62.6048 32.5995 63.3927 32.3639 64.048 31.9021C64.6361 31.4741 65.0739 30.8712 65.2987 30.1794L65.3433 30.0457H63.4869L63.458 30.1007C63.315 30.4131 63.0798 30.6743 62.7841 30.8491C62.4883 31.0239 62.1462 31.1041 61.8035 31.0788C61.2917 31.0893 60.7955 30.9014 60.4191 30.5544C60.0676 30.2294 59.849 29.7857 59.8056 29.3089H65.4376L65.4508 29.2224C65.4892 28.9681 65.5076 28.7112 65.5058 28.4541C65.5186 27.7744 65.3571 27.1028 65.0365 26.5033C64.7302 25.9509 64.2739 25.4964 63.7202 25.1923ZM59.8239 27.8799C59.887 27.4246 60.1067 27.0056 60.4453 26.6947C60.7996 26.3784 61.2605 26.2079 61.7354 26.2175C62.245 26.2017 62.7426 26.3744 63.1329 26.7026C63.3047 26.848 63.4439 27.0281 63.5415 27.2309C63.6391 27.4338 63.6929 27.6549 63.6992 27.8799H59.8239Z" fill="#2A2756"/>
<path d="M72.3702 25.0979C71.8713 24.8432 71.3177 24.7145 70.7576 24.723C70.3158 24.7203 69.8782 24.8096 69.4728 24.9852C69.1696 25.1152 68.8924 25.2991 68.6548 25.5279C68.6506 25.3276 68.5682 25.1369 68.425 24.9967C68.2819 24.8565 68.0895 24.778 67.8891 24.778H66.919V32.4658H68.6548V28.2103C68.6188 27.6816 68.7899 27.1597 69.132 26.755C69.3001 26.5863 69.5019 26.4548 69.7241 26.369C69.9463 26.2832 70.1841 26.245 70.422 26.2569C70.6588 26.2448 70.8954 26.2829 71.1164 26.3688C71.3374 26.4546 71.5377 26.5863 71.7042 26.755C72.0414 27.162 72.2094 27.683 72.1735 28.2103V32.4527H73.8962V27.9953C73.9122 27.3819 73.7743 26.7743 73.495 26.228C73.2423 25.7467 72.8503 25.3528 72.3702 25.0979Z" fill="#2A2756"/>
<path d="M75.3094 26.2332H78.6262L75.5637 30.6907C75.3957 30.9297 75.3043 31.214 75.3015 31.5061V32.4579H80.695V30.9896H77.4017L80.4511 26.5322C80.6192 26.2942 80.7107 26.0106 80.7133 25.7193V24.778H75.3094V26.2332Z" fill="#2A2756"/>
<path d="M87.7064 25.7429C87.4481 25.4733 87.1468 25.2482 86.815 25.077C86.3274 24.8322 85.7872 24.7106 85.2417 24.723C84.6 24.7156 83.9687 24.8861 83.4179 25.2156C82.8672 25.5452 82.4184 26.0208 82.1216 26.5899C81.7976 27.2147 81.6345 27.9104 81.647 28.614C81.6357 29.3235 81.7987 30.0248 82.1216 30.6566C82.4181 31.2343 82.8646 31.7215 83.4142 32.0672C83.9205 32.3721 84.4952 32.5451 85.0857 32.5703C85.6762 32.5955 86.2635 32.4721 86.794 32.2115C87.1352 32.0387 87.444 31.808 87.7064 31.5297V32.4527H89.4553V24.778H88.6871C88.4297 24.778 88.1826 24.8792 87.9992 25.0597C87.8157 25.2402 87.7106 25.4856 87.7064 25.7429ZM87.4049 29.9382C87.2229 30.2801 86.9509 30.5657 86.6183 30.7641C86.3002 30.9505 85.9382 31.0488 85.5695 31.0488C85.2008 31.0488 84.8388 30.9505 84.5207 30.7641C84.186 30.5613 83.9139 30.27 83.7341 29.9224C83.5248 29.5234 83.4201 29.0777 83.4299 28.6272C83.4192 28.1835 83.523 27.7446 83.7315 27.3529C83.9161 27.0177 84.1879 26.7387 84.5181 26.5453C84.8388 26.3677 85.2004 26.2773 85.5669 26.2831C85.9356 26.2816 86.2978 26.3794 86.6157 26.5663C86.9475 26.7634 87.2194 27.0471 87.4023 27.3869C87.6098 27.7809 87.7136 28.2213 87.7038 28.6665C87.7103 29.106 87.6076 29.5403 87.4049 29.9303V29.9382Z" fill="#2A2756"/>
<path d="M93.0028 32.4527H93.3122V24.778H91.5764V31.0394C91.5806 31.4152 91.7326 31.7743 91.9995 32.0388C92.2665 32.3033 92.627 32.452 93.0028 32.4527Z" fill="#2A2756"/>
<path d="M92.4522 23.8394C93.0329 23.8394 93.5036 23.3686 93.5036 22.7879C93.5036 22.2073 93.0329 21.7365 92.4522 21.7365C91.8715 21.7365 91.4008 22.2073 91.4008 22.7879C91.4008 23.3686 91.8715 23.8394 92.4522 23.8394Z" fill="#2A2756"/>
</svg>
