






<svg width="24" height="24" viewBox="0 0 24 24" fill="none" xmlns="http://www.w3.org/2000/svg">
<path d="M11.5996 2H15.5996" stroke="white" stroke-width="1.5" stroke-linecap="round" stroke-linejoin="round"/>
<path d="M12.8333 7C15.6083 7.14587 17 8.17504 17 11.9838V16.9919C17 20.3306 16.1667 22 12 22H7C2.83333 22 2 20.3306 2 16.9919V11.9838C2 8.17504 3.39167 7.15397 6.16667 7H12.8333Z" stroke="white" stroke-width="1.5" stroke-miterlimit="10" stroke-linecap="round" stroke-linejoin="round"/>
<path d="M5 14H11" stroke="white" stroke-width="1.5" stroke-miterlimit="10" stroke-linecap="round" stroke-linejoin="round"/>
<path d="M5 18H9" stroke="white" stroke-width="1.5" stroke-miterlimit="10" stroke-linecap="round" stroke-linejoin="round"/>
<path d="M7.17051 5C7.61912 2.79768 8.95259 2.12285 11.1667 2H17.8333C20.6083 2.14587 22 3.17504 22 6.98379V11.9919C22 14.7078 21.4486 16.3191 19 16.8257" stroke="white" stroke-width="1.5" stroke-miterlimit="10" stroke-linecap="round" stroke-linejoin="round"/>
</svg>
