<svg width="48" height="48" viewBox="0 0 48 48" fill="none" xmlns="http://www.w3.org/2000/svg">
<path d="M23.9994 48C37.1994 48 47.9994 37.2 47.9994 24C47.9994 10.8 37.1994 0 23.9994 0C10.7994 0 -0.000610352 10.8 -0.000610352 24C-0.000610352 37.2 10.7994 48 23.9994 48Z" fill="#606060"/>
<path d="M24 24C27.3137 24 30 21.3137 30 18C30 14.6863 27.3137 12 24 12C20.6863 12 18 14.6863 18 18C18 21.3137 20.6863 24 24 24Z" stroke="white" stroke-width="1.8" stroke-linecap="round" stroke-linejoin="round"/>
<path d="M32.652 28.4882L28.404 32.7362C28.236 32.9042 28.08 33.2162 28.044 33.4442L27.816 35.0642C27.732 35.6522 28.14 36.0602 28.728 35.9762L30.3479 35.7482C30.5759 35.7122 30.9 35.5562 31.056 35.3882L35.304 31.1402C36.036 30.4082 36.384 29.5562 35.304 28.4762C34.236 27.4082 33.384 27.7562 32.652 28.4882Z" stroke="white" stroke-width="1.8" stroke-miterlimit="10" stroke-linecap="round" stroke-linejoin="round"/>
<path d="M32.04 29.1001C32.4 30.3961 33.408 31.4041 34.704 31.7641" stroke="white" stroke-width="1.8" stroke-miterlimit="10" stroke-linecap="round" stroke-linejoin="round"/>
<path d="M13.692 36.0001C13.692 31.3561 18.312 27.6001 24 27.6001C25.248 27.6001 26.448 27.7801 27.564 28.1161" stroke="white" stroke-width="1.8" stroke-linecap="round" stroke-linejoin="round"/>
</svg>
