<svg width="9" height="10" viewBox="0 0 9 10" fill="none" xmlns="http://www.w3.org/2000/svg">
<path d="M1.12714 4.35478V6.03105C1.12714 7.70732 1.79914 8.37932 3.4754 8.37932H5.48767C7.16393 8.37932 7.83593 7.70732 7.83593 6.03105V4.35478" stroke="#606060" stroke-width="1.4" stroke-linecap="round" stroke-linejoin="round"/>
<path d="M4.48365 4.64601C5.16685 4.64601 5.67085 4.08974 5.60365 3.40654L5.35725 0.912674H3.61378L3.36365 3.40654C3.29645 4.08974 3.80045 4.64601 4.48365 4.64601Z" stroke="#606060" stroke-width="1.4" stroke-linecap="round" stroke-linejoin="round"/>
<path d="M6.83917 4.64601C7.5933 4.64601 8.14584 4.03374 8.07117 3.28334L7.96664 2.25667C7.83224 1.28601 7.4589 0.912674 6.48077 0.912674H5.3421L5.60344 3.52974C5.6669 4.14574 6.22317 4.64601 6.83917 4.64601Z" stroke="#606060" stroke-width="1.4" stroke-linecap="round" stroke-linejoin="round"/>
<path d="M2.10918 4.64601C2.72518 4.64601 3.28145 4.14574 3.34118 3.52974L3.42331 2.70467L3.60251 0.912674H2.46385C1.48572 0.912674 1.11238 1.28601 0.977982 2.25667L0.877182 3.28334C0.802515 4.03374 1.35505 4.64601 2.10918 4.64601Z" stroke="#606060" stroke-width="1.4" stroke-linecap="round" stroke-linejoin="round"/>
</svg>
